<?xml version="1.0" encoding="UTF-8"?>
<svg version="1.1" xmlns="http://www.w3.org/2000/svg" width="32" height="32">
<path d="M0 0 C10.56 0 21.12 0 32 0 C32 10.56 32 21.12 32 32 C21.44 32 10.88 32 0 32 C0 21.44 0 10.88 0 0 Z " fill="#FE8F00" transform="translate(0,0)"/>
<path d="M0 0 C1.32 0 2.64 0 4 0 C4.67057887 1.7902061 5.3363469 3.58221489 6 5.375 C6.556875 6.87160156 6.556875 6.87160156 7.125 8.3984375 C8 11 8 11 8 13 C7.01 13 6.02 13 5 13 C5 12.01 5 11.02 5 10 C3.02 10 1.04 10 -1 10 C-1 10.99 -1 11.98 -1 13 C-1.99 13 -2.98 13 -4 13 C-3.52140759 11.39566191 -3.04210442 9.79153584 -2.5625 8.1875 C-2.29566406 7.29417969 -2.02882813 6.40085937 -1.75390625 5.48046875 C-1.19612127 3.64526945 -0.60655425 1.81966274 0 0 Z " fill="#1F1200" transform="translate(7,10)"/>
<path d="M0 0 C0.66 0 1.32 0 2 0 C2 1.65 2 3.3 2 5 C3.98 5 5.96 5 8 5 C8 3.35 8 1.7 8 0 C8.99 0 9.98 0 11 0 C11 4.29 11 8.58 11 13 C10.01 13 9.02 13 8 13 C8 11.02 8 9.04 8 7 C6.02 7 4.04 7 2 7 C2 8.98 2 10.96 2 13 C1.34 13 0.68 13 0 13 C0 8.71 0 4.42 0 0 Z " fill="#0A0600" transform="translate(17,10)"/>
</svg>
